<svg width="63" height="63" fill="none" xmlns="http://www.w3.org/2000/svg"><path d="M0 0h63L31.5 31.5 0 63V0z" fill="#0F0F0F"/><path d="M13.498 26.385l6.93 6.93-1.317 1.316-7.662-.752 4.207 4.207-1.584 1.584-6.93-6.93 1.327-1.326 7.653.762-4.208-4.207 1.584-1.584zm13.638-2.352l1.287 1.287-5.366 5.365-6.93-6.93 5.238-5.236 1.287 1.287-3.643 3.643 1.504 1.504 3.218-3.217 1.247 1.247-3.217 3.218 1.603 1.603 3.772-3.771zm7-18.286l4.663 9.197-1.723 1.722-6.216-3.168 3.118 6.267-1.713 1.712-9.206-4.652 1.663-1.664 6.434 3.307-3.237-6.504 1.485-1.485 6.494 3.326-3.296-6.524 1.534-1.534z" fill="#fff"/></svg>