<svg width="92" height="36" fill="none" xmlns="http://www.w3.org/2000/svg"><g opacity=".25" fill="#fff"><path fill-rule="evenodd" clip-rule="evenodd" d="M64.57 26.743c.213-.067.147-.038.1-.02-.052.02-.095.039-.133.053-.037.014-.07.028-.17.07-.099.038-.26.105-1.252.502-.993.401-2.812 1.134-4.91 1.762-2.094.629-4.467 1.154-6.853 1.57a76.19 76.19 0 01-7.43.94 92.679 92.679 0 01-8.62.274 94.823 94.823 0 01-9.178-.577 71.473 71.473 0 01-8.27-1.432c-2.562-.6-4.94-1.313-7.1-2.15-2.164-.837-4.116-1.796-5.732-2.907-1.616-1.105-2.897-2.363-3.729-3.492C.466 20.202.088 19.19.013 18.084c-.072-1.11.16-2.31.831-3.535.671-1.219 1.782-2.457 3.55-3.72C6.155 9.564 8.57 8.274 11.16 7.253c2.595-1.02 5.369-1.767 6.754-2.145 1.384-.374 1.384-.374 1.351-.36-.033.015-.104.043-.983.402-.884.355-2.58 1.045-4.017 1.716-1.432.676-2.609 1.337-3.733 2.14-1.125.804-2.193 1.744-2.95 2.643-.756.897-1.195 1.753-1.417 2.736a6.886 6.886 0 00.042 3.148c.26 1.049.79 2.022 1.744 3.071.955 1.045 2.34 2.16 4.022 3.181 1.678 1.02 3.653 1.943 5.718 2.684 2.07.742 4.235 1.3 6.584 1.787 2.354.491 4.891.907 7.888 1.215 2.991.302 6.432.496 9.93.477a85.01 85.01 0 0010.321-.662c3.275-.42 6.276-1.03 8.063-1.422 1.786-.397 2.353-.577 2.878-.742a99.774 99.774 0 011.214-.378z"/><path fill-rule="evenodd" clip-rule="evenodd" d="M10.452 5.693c-.232.066-.16.038-.109.019.057-.024.104-.043.142-.057.043-.019.085-.033.194-.08.109-.043.288-.114 1.38-.553 1.092-.44 3.1-1.253 5.411-1.943 2.316-.694 4.93-1.271 7.562-1.734A85.162 85.162 0 0133.227.31c2.93-.232 6.149-.35 9.509-.298 3.36.047 6.857.255 10.123.633A79.76 79.76 0 0161.98 2.22c2.827.667 5.445 1.456 7.832 2.377 2.382.922 4.537 1.98 6.318 3.205 1.787 1.219 3.2 2.604 4.112 3.856.917 1.248 1.333 2.363 1.413 3.582.08 1.225-.175 2.553-.912 3.895-.742 1.347-1.97 2.713-3.918 4.111-1.947 1.404-4.608 2.836-7.472 3.966-2.86 1.13-5.917 1.956-7.448 2.372-1.527.411-1.527.411-1.465.388.066-.024.194-.076 1.162-.473.974-.392 2.794-1.13 4.353-1.871 1.56-.738 2.86-1.48 4.098-2.368 1.238-.893 2.42-1.928 3.256-2.92.832-.993 1.319-1.934 1.56-3.02a7.622 7.622 0 00-.043-3.47c-.293-1.158-.87-2.23-1.923-3.388-1.055-1.154-2.586-2.382-4.438-3.507-1.853-1.125-4.027-2.146-6.31-2.963-2.282-.818-4.664-1.432-7.259-1.971A83.59 83.59 0 0046.2 2.682a105.248 105.248 0 00-10.955-.529 94.63 94.63 0 00-11.385.733c-3.61.463-6.924 1.134-8.894 1.569-1.967.434-2.595.633-3.172.817-.581.18-1.11.35-1.342.42z"/><path fill-rule="evenodd" clip-rule="evenodd" d="M9.474 29.465c-.265-.08-.184-.047-.123-.023.066.028.118.047.166.066l.217.09 1.583.637c1.257.506 3.564 1.433 6.22 2.231 2.656.794 5.657 1.456 8.677 1.985 3.02.534 6.05.931 9.414 1.196 3.36.264 7.06.397 10.913.34 3.856-.052 7.873-.298 11.621-.728a91.268 91.268 0 0010.478-1.81c3.242-.76 6.248-1.668 8.989-2.727 2.736-1.058 5.213-2.273 7.26-3.677 2.046-1.403 3.666-2.991 4.72-4.428 1.05-1.437 1.527-2.718 1.622-4.116.09-1.404-.199-2.926-1.054-4.471-.851-1.546-2.26-3.115-4.49-4.717-2.236-1.602-5.293-3.233-8.564-4.49-3.27-1.257-6.758-2.136-8.559-2.594-1.805-.459-1.928-.492-1.999-.51a.649.649 0 00-.1-.024c-.009-.005-.009-.005 1.163.434 1.177.435 3.526 1.31 5.45 2.165 1.918.855 3.407 1.697 4.83 2.713 1.422 1.016 2.779 2.207 3.733 3.346.96 1.134 1.517 2.216 1.796 3.464a8.829 8.829 0 01-.052 3.989c-.33 1.323-.997 2.561-2.207 3.885-1.21 1.323-2.963 2.736-5.095 4.031-2.126 1.29-4.626 2.462-7.245 3.398-2.618.94-5.359 1.645-8.336 2.264a96.384 96.384 0 01-9.982 1.536c-3.79.387-8.152.628-12.58.605-4.43-.02-8.919-.307-13.068-.837-4.15-.529-7.95-1.304-10.213-1.805-2.26-.496-2.978-.723-3.644-.936-.667-.208-1.276-.401-1.541-.482z"/><path d="M20.934 19.612c-.827.727-1.772 1.091-2.83 1.091-1.135 0-2.104-.368-2.902-1.1-.799-.738-1.196-1.631-1.196-2.671 0-1.04.397-1.933 1.196-2.67.798-.738 1.767-1.106 2.902-1.106 1.058 0 2.06.397 3.01 1.195l-.78.648c-.713-.581-1.455-.874-2.23-.874-.842 0-1.56.274-2.156.817-.595.553-.893 1.215-.893 1.99 0 .775.298 1.441.893 1.99.596.548 1.314.822 2.155.822.719 0 1.32-.175 1.792-.53v-2.23h1.04v2.628zm4.944-2.557l-.685-1.73-.685 1.73h1.37zm-.406-3.819l2.92 7.387h-1.105l-1.03-2.613H24.13l-1.03 2.613h-1.107l2.916-7.387h.563zm3.923 7.387v-7.387h1.035v6.428h2.868v.96h-3.904zm8.492-3.568l-.685-1.73-.686 1.73h1.37zm-.407-3.819l2.921 7.387h-1.106l-1.03-2.613h-2.127l-1.03 2.613h-1.106l2.916-7.387h.563zm3.423 7.387l2.519-4.031-2.099-3.356h1.191l1.503 2.406 1.517-2.406h1.191l-2.112 3.356 2.533 4.031h-1.191l-1.938-3.076-1.923 3.076h-1.191zm9.522-2.963l-2.77-4.424h1.192l2.093 3.346 2.104-3.346h1.2l-2.779 4.424v2.963h-1.04V17.66zm9.509-4.424v7.387h-1.04v-7.387h1.04zm4.022.955v6.432H62.91v-6.432h-1.87v-.955h4.783v.955h-1.867z"/></g></svg>