<svg width="148" height="126" fill="none" xmlns="http://www.w3.org/2000/svg"><path d="M73.298 0L35.135 22.037v44.075l38.163 22.037 38.164-22.037V22.037L73.298 0zm29.727 61.291l-29.784 17.16-29.728-17.16V26.858L73.298 9.64l29.785 17.217V61.29h-.058z" fill="#fff"/><path d="M95.91 30.818V57.33l-15.668 9.24V51.937H66.354V66.57l-15.667-9.24V30.818l15.667-9.24v15.036h13.888V21.578l15.667 9.24zm-77.36 94.805h-4.425v-8.663H4.379v8.663H0v-20.575h4.379v8.098h9.698v-8.098h4.426v20.575h.047zm24.012 0H28.014v-20.575h14.548v3.861h-10.17v4.332h9.982v3.86h-9.982v4.661h10.17v3.861zm18.786.377c-3.108 0-5.744-.989-7.816-2.966-2.071-1.978-3.154-4.52-3.154-7.675 0-3.154 1.035-5.697 3.154-7.674 2.072-1.978 4.708-2.966 7.816-2.966 3.86 0 6.733 1.695 8.616 5.038l-3.767 1.836a6.201 6.201 0 00-1.977-2.166c-.895-.565-1.836-.848-2.872-.848-1.883 0-3.437.66-4.614 1.931-1.224 1.271-1.837 2.872-1.837 4.849 0 1.978.613 3.579 1.837 4.85 1.224 1.271 2.777 1.93 4.614 1.93 1.036 0 1.977-.282 2.872-.847.894-.565 1.553-1.272 1.977-2.166l3.767 1.836c-1.978 3.343-4.85 5.038-8.616 5.038zm25.801-.377h-4.426v-16.714h-6.026v-3.861h16.431v3.861h-5.98v16.714zm23.964.377c-3.107 0-5.696-.989-7.721-3.013-2.024-2.025-3.06-4.567-3.06-7.628 0-3.107 1.036-5.65 3.06-7.627 2.025-2.025 4.614-3.013 7.721-3.013 3.108 0 5.697.988 7.722 3.013 2.024 1.977 3.06 4.567 3.06 7.674 0 3.108-1.036 5.65-3.06 7.675-2.025 1.93-4.614 2.919-7.722 2.919zm-4.519-5.791c1.13 1.271 2.636 1.93 4.519 1.93 1.884 0 3.39-.659 4.52-1.93 1.13-1.271 1.742-2.872 1.742-4.85 0-1.977-.565-3.578-1.742-4.849-1.13-1.271-2.683-1.931-4.52-1.931-1.883 0-3.389.66-4.519 1.931-1.13 1.271-1.695 2.872-1.695 4.849 0 1.931.565 3.531 1.695 4.85zm40.443 5.414h-5.038l-4.049-7.298h-3.201v7.298h-4.379v-20.575h9.652c2.118 0 3.813.612 5.038 1.837 1.224 1.224 1.883 2.824 1.883 4.802 0 1.695-.424 3.06-1.318 4.096-.895 1.036-1.931 1.695-3.202 2.025l4.614 7.815zm-7.674-11.158c.894 0 1.647-.236 2.212-.754.565-.517.848-1.177.848-2.024 0-.848-.283-1.507-.848-2.025s-1.318-.753-2.212-.753h-4.614v5.556h4.614z" fill="#fff"/></svg>