<svg width="24" height="24" fill="none" xmlns="http://www.w3.org/2000/svg"><path d="M4.863 15.954a25.545 25.545 0 008.502 6.634c1.243.586 2.905 1.283 4.757 1.402.115.005.225.01.34.01 1.242 0 2.24-.428 3.055-1.308a.11.11 0 00.02-.025c.289-.348.619-.661.963-.994.235-.224.474-.458.704-.697 1.063-1.104 1.063-2.506-.01-3.575l-3-2.99c-.51-.526-1.118-.805-1.758-.805-.639 0-1.253.279-1.777.801l-1.787 1.78a9.428 9.428 0 00-.494-.258 6.14 6.14 0 01-.549-.299c-1.627-1.03-3.105-2.372-4.518-4.098-.714-.9-1.193-1.655-1.527-2.426a31.07 31.07 0 001.333-1.298c.15-.154.304-.309.459-.463.539-.537.829-1.159.829-1.79 0-.632-.285-1.253-.83-1.79L8.089 2.283c-.174-.174-.34-.344-.509-.518-.33-.338-.674-.686-1.013-1C6.052.265 5.448 0 4.809 0 4.175 0 3.566.264 3.03.77L1.164 2.63A3.815 3.815 0 00.021 5.078c-.095 1.19.125 2.452.694 3.979.874 2.362 2.192 4.555 4.148 6.898zM1.24 5.182c.06-.661.315-1.214.794-1.69l1.857-1.85c.29-.28.61-.424.919-.424.304 0 .614.145.898.433.335.308.65.632.989.975l.519.527 1.487 1.482c.31.308.47.622.47.93 0 .308-.16.621-.47.93l-.464.467c-.464.468-.899.91-1.378 1.333l-.025.025c-.414.413-.35.806-.25 1.104l.016.04c.384.92.918 1.795 1.752 2.84 1.497 1.84 3.075 3.267 4.812 4.366.215.139.444.248.659.358.2.1.384.194.55.298l.054.03c.165.084.324.124.484.124.4 0 .66-.253.744-.338l1.867-1.86c.29-.288.604-.442.913-.442.38 0 .69.233.884.442l3.01 2.994c.6.597.594 1.243-.015 1.875-.21.224-.43.438-.664.661-.35.338-.713.687-1.043 1.08-.574.616-1.258.905-2.142.905-.084 0-.174-.006-.26-.01-1.636-.105-3.159-.741-4.302-1.284a24.267 24.267 0 01-8.092-6.315c-1.862-2.233-3.115-4.312-3.944-6.54-.514-1.367-.709-2.466-.629-3.466z" fill="#878787"/></svg>